# Blender v2.79 (sub 0) OBJ File: ''
# www.blender.org
v -1.000000 -1.000000 -1.000000
v -1.000000 1.000000 -1.000000
v 1.000000 -1.000000 -1.000000
v 1.000000 1.000000 -1.000000
v 0.000000 0.000000 1.000000
vt 0.191045 0.500000
vt 0.000100 0.000100
vt 0.500000 0.191045
vt 0.999900 0.000100
vt 0.808955 0.500000
vt 0.999900 0.999900
vt 0.500000 0.808955
vt 0.000100 0.999900
vn -0.6626 -0.6626 -0.3490
vn 0.0000 0.0000 1.0000
vn -0.6626 0.6626 -0.3490
vn 0.6626 0.6626 -0.3490
vn 0.6626 -0.6626 -0.3490
s 1
f 1/1/1 5/2/2 2/3/3
f 2/3/3 5/4/2 4/5/4
f 4/5/4 5/6/2 3/7/5
f 3/7/5 5/8/2 1/1/1
f 2/3/3 4/5/4 3/7/5 1/1/1
